<svg xmlns="http://www.w3.org/2000/svg" viewBox="0 0 800 600" preserveAspectRatio="xMidYMid meet">
  <defs>
    <linearGradient id="alisonBg" x1="0%" y1="0%" x2="100%" y2="100%">
      <stop offset="0%" stop-color="#0a1628"/>
      <stop offset="100%" stop-color="#0d1f3a"/>
    </linearGradient>
    <linearGradient id="alisonAccent" x1="0%" y1="0%" x2="100%" y2="0%">
      <stop offset="0%" stop-color="#00ffcc"/>
      <stop offset="100%" stop-color="#00a8e8"/>
    </linearGradient>
    <radialGradient id="alisonGlow" cx="50%" cy="50%" r="50%">
      <stop offset="0%" stop-color="#00ffcc" stop-opacity="0.12"/>
      <stop offset="100%" stop-color="#00ffcc" stop-opacity="0"/>
    </radialGradient>
  </defs>

  <rect width="800" height="600" fill="url(#alisonBg)"/>
  <rect width="800" height="600" fill="url(#alisonGlow)"/>

  <rect x="20" y="20" width="760" height="560" fill="none" stroke="url(#alisonAccent)" stroke-width="3"/>
  <rect x="32" y="32" width="736" height="536" fill="none" stroke="#00ffcc" stroke-width="1" stroke-opacity="0.4"/>

  <path d="M20 80 L20 20 L80 20" fill="none" stroke="#00ffcc" stroke-width="4"/>
  <path d="M720 20 L780 20 L780 80" fill="none" stroke="#00ffcc" stroke-width="4"/>
  <path d="M780 520 L780 580 L720 580" fill="none" stroke="#00ffcc" stroke-width="4"/>
  <path d="M80 580 L20 580 L20 520" fill="none" stroke="#00ffcc" stroke-width="4"/>

  <!-- Alison Logo -->
  <text x="400" y="120" text-anchor="middle" font-family="'Arial Black', sans-serif" font-size="34" font-weight="900" fill="#00ffcc">ALISON</text>
  <text x="400" y="142" text-anchor="middle" font-family="sans-serif" font-size="11" fill="#00a8e8" letter-spacing="3">FREE ONLINE LEARNING</text>
  <line x1="280" y1="160" x2="520" y2="160" stroke="#00ffcc" stroke-width="1" stroke-opacity="0.5"/>

  <!-- Cyber lock icon -->
  <rect x="368" y="220" width="64" height="50" rx="4" fill="none" stroke="#00ffcc" stroke-width="2.5"/>
  <path d="M378 220 L378 205 Q378 188 400 188 Q422 188 422 205 L422 220" fill="none" stroke="#00ffcc" stroke-width="2.5"/>
  <circle cx="400" cy="245" r="6" fill="#00ffcc"/>
  <rect x="397" y="248" width="6" height="10" fill="#00ffcc"/>

  <text x="400" y="310" text-anchor="middle" font-family="serif" font-size="20" fill="#9aa5b1">This is to certify that</text>

  <text x="400" y="350" text-anchor="middle" font-family="serif" font-size="26" font-weight="bold" fill="#ffffff">Eng. Khalid Mohammed Al-harbi</text>

  <text x="400" y="382" text-anchor="middle" font-family="serif" font-size="16" fill="#9aa5b1">has successfully completed</text>

  <text x="400" y="415" text-anchor="middle" font-family="serif" font-size="22" font-weight="bold" fill="#00ffcc">Cyber Security Essentials</text>
  <text x="400" y="438" text-anchor="middle" font-family="serif" font-size="13" fill="#9aa5b1">250 Training Hours • Comprehensive Course</text>

  <line x1="180" y1="510" x2="380" y2="510" stroke="#00ffcc" stroke-width="1" stroke-opacity="0.5"/>
  <line x1="420" y1="510" x2="620" y2="510" stroke="#00ffcc" stroke-width="1" stroke-opacity="0.5"/>

  <text x="280" y="530" text-anchor="middle" font-family="sans-serif" font-size="11" fill="#9aa5b1">Date of Issue</text>
  <text x="280" y="548" text-anchor="middle" font-family="sans-serif" font-size="13" font-weight="bold" fill="#ffffff">February 01, 2026</text>

  <text x="520" y="530" text-anchor="middle" font-family="sans-serif" font-size="11" fill="#9aa5b1">Issued by</text>
  <text x="520" y="548" text-anchor="middle" font-family="sans-serif" font-size="13" font-weight="bold" fill="#00ffcc">Alison — Ireland</text>
</svg>
