<svg xmlns="http://www.w3.org/2000/svg" viewBox="0 0 800 600" preserveAspectRatio="xMidYMid meet">
  <defs>
    <linearGradient id="hpBg" x1="0%" y1="0%" x2="100%" y2="100%">
      <stop offset="0%" stop-color="#0a1628"/>
      <stop offset="100%" stop-color="#0d1f3a"/>
    </linearGradient>
    <linearGradient id="hpAccent" x1="0%" y1="0%" x2="100%" y2="0%">
      <stop offset="0%" stop-color="#0096d6"/>
      <stop offset="100%" stop-color="#00a8e8"/>
    </linearGradient>
  </defs>

  <rect width="800" height="600" fill="url(#hpBg)"/>

  <rect x="20" y="20" width="760" height="560" fill="none" stroke="url(#hpAccent)" stroke-width="3"/>
  <rect x="32" y="32" width="736" height="536" fill="none" stroke="#0096d6" stroke-width="1" stroke-opacity="0.4"/>

  <path d="M20 80 L20 20 L80 20" fill="none" stroke="#0096d6" stroke-width="4"/>
  <path d="M720 20 L780 20 L780 80" fill="none" stroke="#0096d6" stroke-width="4"/>
  <path d="M780 520 L780 580 L720 580" fill="none" stroke="#0096d6" stroke-width="4"/>
  <path d="M80 580 L20 580 L20 520" fill="none" stroke="#0096d6" stroke-width="4"/>

  <!-- HP LIFE logo -->
  <circle cx="400" cy="120" r="38" fill="none" stroke="#0096d6" stroke-width="3"/>
  <text x="400" y="135" text-anchor="middle" font-family="'Arial Black', sans-serif" font-size="32" font-weight="900" fill="#0096d6">hp</text>
  <text x="400" y="180" text-anchor="middle" font-family="sans-serif" font-size="18" font-weight="bold" fill="#0096d6" letter-spacing="6">LIFE</text>
  <line x1="280" y1="200" x2="520" y2="200" stroke="#0096d6" stroke-width="1" stroke-opacity="0.5"/>

  <!-- Network nodes icon -->
  <g stroke="#0096d6" stroke-width="2" fill="none">
    <line x1="365" y1="240" x2="400" y2="265"/>
    <line x1="400" y1="265" x2="435" y2="240"/>
    <line x1="400" y1="265" x2="400" y2="295"/>
    <line x1="365" y1="240" x2="400" y2="220"/>
    <line x1="435" y1="240" x2="400" y2="220"/>
  </g>
  <circle cx="365" cy="240" r="6" fill="#0096d6"/>
  <circle cx="435" cy="240" r="6" fill="#0096d6"/>
  <circle cx="400" cy="265" r="7" fill="#0096d6"/>
  <circle cx="400" cy="220" r="5" fill="#0096d6"/>
  <circle cx="400" cy="295" r="5" fill="#0096d6"/>

  <text x="400" y="345" text-anchor="middle" font-family="serif" font-size="20" fill="#9aa5b1">This certifies that</text>

  <text x="400" y="385" text-anchor="middle" font-family="serif" font-size="26" font-weight="bold" fill="#ffffff">Eng. Khalid Mohammed Al-harbi</text>

  <text x="400" y="418" text-anchor="middle" font-family="serif" font-size="16" fill="#9aa5b1">has successfully completed</text>

  <text x="400" y="450" text-anchor="middle" font-family="serif" font-size="22" font-weight="bold" fill="#0096d6">Professional Networking</text>
  <text x="400" y="473" text-anchor="middle" font-family="serif" font-size="13" fill="#9aa5b1">HP LIFE Business Skills Course</text>

  <line x1="180" y1="510" x2="380" y2="510" stroke="#0096d6" stroke-width="1" stroke-opacity="0.5"/>
  <line x1="420" y1="510" x2="620" y2="510" stroke="#0096d6" stroke-width="1" stroke-opacity="0.5"/>

  <text x="280" y="530" text-anchor="middle" font-family="sans-serif" font-size="11" fill="#9aa5b1">Date of Completion</text>
  <text x="280" y="548" text-anchor="middle" font-family="sans-serif" font-size="13" font-weight="bold" fill="#ffffff">2025</text>

  <text x="520" y="530" text-anchor="middle" font-family="sans-serif" font-size="11" fill="#9aa5b1">Issued by</text>
  <text x="520" y="548" text-anchor="middle" font-family="sans-serif" font-size="13" font-weight="bold" fill="#0096d6">HP LIFE Global</text>
</svg>
